<mxfile host="app.diagrams.net" modified="2022-04-07T13:00:44.018Z" agent="5.0 (X11)" etag="KPmLycl1gK-HVA-gGRcY" version="17.4.0" type="github">
  <diagram id="C5RBs43oDa-KdzZeNtuy" name="Page-1">
    <mxGraphModel dx="1968" dy="1048" grid="1" gridSize="10" guides="1" tooltips="1" connect="1" arrows="1" fold="1" page="1" pageScale="1" pageWidth="827" pageHeight="1169" math="0" shadow="0">
      <root>
        <mxCell id="WIyWlLk6GJQsqaUBKTNV-0" />
        <mxCell id="WIyWlLk6GJQsqaUBKTNV-1" parent="WIyWlLk6GJQsqaUBKTNV-0" />
        <mxCell id="mYjO0Qp_n7VcaRQ0WTUq-8" style="edgeStyle=orthogonalEdgeStyle;rounded=0;orthogonalLoop=1;jettySize=auto;html=1;entryX=0.456;entryY=0.986;entryDx=0;entryDy=0;entryPerimeter=0;" edge="1" parent="WIyWlLk6GJQsqaUBKTNV-1" source="WIyWlLk6GJQsqaUBKTNV-11" target="mYjO0Qp_n7VcaRQ0WTUq-3">
          <mxGeometry relative="1" as="geometry">
            <Array as="points">
              <mxPoint x="71" y="330" />
            </Array>
          </mxGeometry>
        </mxCell>
        <mxCell id="WIyWlLk6GJQsqaUBKTNV-11" value="Download file to cronjob container" style="rounded=1;whiteSpace=wrap;html=1;fontSize=12;glass=0;strokeWidth=1;shadow=0;" parent="WIyWlLk6GJQsqaUBKTNV-1" vertex="1">
          <mxGeometry x="220" y="300" width="120" height="40" as="geometry" />
        </mxCell>
        <mxCell id="mYjO0Qp_n7VcaRQ0WTUq-0" value="SOLR container" style="swimlane;" vertex="1" parent="WIyWlLk6GJQsqaUBKTNV-1">
          <mxGeometry x="500" y="50" width="200" height="200" as="geometry" />
        </mxCell>
        <mxCell id="mYjO0Qp_n7VcaRQ0WTUq-2" value="run_import.sh" style="text;html=1;strokeColor=none;fillColor=none;align=center;verticalAlign=middle;whiteSpace=wrap;rounded=0;" vertex="1" parent="mYjO0Qp_n7VcaRQ0WTUq-0">
          <mxGeometry x="20" y="30" width="60" height="30" as="geometry" />
        </mxCell>
        <mxCell id="mYjO0Qp_n7VcaRQ0WTUq-10" value="/tmp" style="ellipse;shape=cloud;whiteSpace=wrap;html=1;" vertex="1" parent="mYjO0Qp_n7VcaRQ0WTUq-0">
          <mxGeometry x="90" y="120" width="90" height="60" as="geometry" />
        </mxCell>
        <mxCell id="mYjO0Qp_n7VcaRQ0WTUq-5" style="edgeStyle=orthogonalEdgeStyle;rounded=0;orthogonalLoop=1;jettySize=auto;html=1;entryX=0.96;entryY=0.7;entryDx=0;entryDy=0;entryPerimeter=0;" edge="1" parent="WIyWlLk6GJQsqaUBKTNV-1" source="mYjO0Qp_n7VcaRQ0WTUq-1" target="mYjO0Qp_n7VcaRQ0WTUq-3">
          <mxGeometry relative="1" as="geometry" />
        </mxCell>
        <mxCell id="mYjO0Qp_n7VcaRQ0WTUq-1" value="Cronjob container" style="swimlane;" vertex="1" parent="WIyWlLk6GJQsqaUBKTNV-1">
          <mxGeometry x="170" y="40" width="200" height="200" as="geometry" />
        </mxCell>
        <mxCell id="WIyWlLk6GJQsqaUBKTNV-3" value="Run script from solr &lt;br&gt;container" style="rounded=1;whiteSpace=wrap;html=1;fontSize=12;glass=0;strokeWidth=1;shadow=0;" parent="mYjO0Qp_n7VcaRQ0WTUq-1" vertex="1">
          <mxGeometry x="40" y="60" width="120" height="40" as="geometry" />
        </mxCell>
        <mxCell id="mYjO0Qp_n7VcaRQ0WTUq-11" style="edgeStyle=orthogonalEdgeStyle;rounded=0;orthogonalLoop=1;jettySize=auto;html=1;" edge="1" parent="WIyWlLk6GJQsqaUBKTNV-1" source="mYjO0Qp_n7VcaRQ0WTUq-3">
          <mxGeometry relative="1" as="geometry">
            <mxPoint x="630" y="220" as="targetPoint" />
            <Array as="points">
              <mxPoint x="40" y="550" />
              <mxPoint x="635" y="550" />
              <mxPoint x="635" y="227" />
            </Array>
          </mxGeometry>
        </mxCell>
        <mxCell id="mYjO0Qp_n7VcaRQ0WTUq-12" value="Sync the file from cronjob container to tmp folder" style="edgeLabel;html=1;align=center;verticalAlign=middle;resizable=0;points=[];" vertex="1" connectable="0" parent="mYjO0Qp_n7VcaRQ0WTUq-11">
          <mxGeometry x="-0.0359" y="3" relative="1" as="geometry">
            <mxPoint x="26" y="-17" as="offset" />
          </mxGeometry>
        </mxCell>
        <mxCell id="mYjO0Qp_n7VcaRQ0WTUq-3" value="persistent storage" style="ellipse;shape=cloud;whiteSpace=wrap;html=1;" vertex="1" parent="WIyWlLk6GJQsqaUBKTNV-1">
          <mxGeometry x="30" y="60" width="90" height="70" as="geometry" />
        </mxCell>
        <mxCell id="mYjO0Qp_n7VcaRQ0WTUq-6" style="edgeStyle=orthogonalEdgeStyle;rounded=0;orthogonalLoop=1;jettySize=auto;html=1;entryX=0;entryY=0.25;entryDx=0;entryDy=0;" edge="1" parent="WIyWlLk6GJQsqaUBKTNV-1" source="WIyWlLk6GJQsqaUBKTNV-3" target="mYjO0Qp_n7VcaRQ0WTUq-2">
          <mxGeometry relative="1" as="geometry">
            <mxPoint x="460" y="130" as="targetPoint" />
          </mxGeometry>
        </mxCell>
        <mxCell id="mYjO0Qp_n7VcaRQ0WTUq-9" style="edgeStyle=orthogonalEdgeStyle;rounded=0;orthogonalLoop=1;jettySize=auto;html=1;entryX=1;entryY=0.5;entryDx=0;entryDy=0;" edge="1" parent="WIyWlLk6GJQsqaUBKTNV-1" target="WIyWlLk6GJQsqaUBKTNV-11">
          <mxGeometry relative="1" as="geometry">
            <mxPoint x="530" y="110" as="sourcePoint" />
            <Array as="points">
              <mxPoint x="475" y="110" />
              <mxPoint x="475" y="320" />
            </Array>
          </mxGeometry>
        </mxCell>
        <mxCell id="mYjO0Qp_n7VcaRQ0WTUq-13" value="&lt;div&gt;Start the download of file to cronjob container (wget)&lt;br&gt;&lt;/div&gt;&lt;div&gt;&lt;br&gt;&lt;/div&gt;&lt;div&gt;Move the file from cronjob container to /tmp (docker cp?)&lt;br&gt;&lt;/div&gt;&lt;div&gt;&lt;br&gt;&lt;/div&gt;&lt;div&gt;Check if the file exists in tmp folder&lt;/div&gt;&lt;div&gt;&lt;br&gt;&lt;/div&gt;&lt;div&gt;If don&#39;t exists try move it again&lt;/div&gt;&lt;div&gt;&lt;br&gt;&lt;/div&gt;&lt;div&gt;Create new SOLR CORE&lt;/div&gt;&lt;div&gt;start the import to new solr core&lt;/div&gt;&lt;div&gt;&lt;br&gt;&lt;/div&gt;&lt;div&gt;Check if import complete&lt;/div&gt;&lt;div&gt;&lt;br&gt;&lt;/div&gt;&lt;div&gt;Switch the solr cores and commit (0 downtime&lt;br&gt;&lt;/div&gt;" style="shape=process;whiteSpace=wrap;html=1;backgroundOutline=1;" vertex="1" parent="WIyWlLk6GJQsqaUBKTNV-1">
          <mxGeometry x="400" y="660" width="244" height="270" as="geometry" />
        </mxCell>
        <mxCell id="mYjO0Qp_n7VcaRQ0WTUq-14" value="run_import.sh" style="text;html=1;align=center;verticalAlign=middle;resizable=0;points=[];autosize=1;strokeColor=none;fillColor=none;" vertex="1" parent="WIyWlLk6GJQsqaUBKTNV-1">
          <mxGeometry x="470" y="610" width="90" height="20" as="geometry" />
        </mxCell>
        <mxCell id="mYjO0Qp_n7VcaRQ0WTUq-15" style="edgeStyle=orthogonalEdgeStyle;rounded=0;orthogonalLoop=1;jettySize=auto;html=1;entryX=1;entryY=0.5;entryDx=0;entryDy=0;" edge="1" parent="WIyWlLk6GJQsqaUBKTNV-1" source="mYjO0Qp_n7VcaRQ0WTUq-2" target="mYjO0Qp_n7VcaRQ0WTUq-13">
          <mxGeometry relative="1" as="geometry">
            <Array as="points">
              <mxPoint x="790" y="95" />
              <mxPoint x="790" y="795" />
            </Array>
          </mxGeometry>
        </mxCell>
      </root>
    </mxGraphModel>
  </diagram>
</mxfile>
